<?xml version="1.0" encoding="utf-8"?>
<!-- Generator: Adobe Illustrator 25.3.1, SVG Export Plug-In . SVG Version: 6.00 Build 0)  -->
<svg version="1.1" id="Layer_1" xmlns="http://www.w3.org/2000/svg" xmlns:xlink="http://www.w3.org/1999/xlink" x="0px" y="0px"
	 viewBox="0 0 241.8 50" style="enable-background:new 0 0 241.8 50;" xml:space="preserve">
<style type="text/css">
	.st0{fill:#286142;}
</style>
<g>
	<g>
		<g>
			<path class="st0" d="M29.8,12.4C29.8,12.4,29.8,12.4,29.8,12.4c0-4.1-3.3-7.4-7.4-7.4H5.9v10.8c0,4.1,3.3,7.4,7.4,7.4h16.5V12.4
				C29.8,12.4,29.8,12.4,29.8,12.4z"/>
			<path class="st0" d="M29.8,26.6H13.3c-4.1,0-7.4,3.3-7.4,7.4v10.8h16.5c4.1,0,7.4-3.3,7.4-7.4v0c0,0,0,0,0,0L29.8,26.6z"/>
			<path class="st0" d="M36.9,5c-2,0-3.7,2-3.7,4.5v6.8h8.3c2,0,3.7-2,3.7-4.5V5H36.9z"/>
			<path class="st0" d="M41.5,19.8h-8.3v20.5c0,2.5,1.6,4.5,3.7,4.5h8.3V24.3C45.2,21.8,43.5,19.8,41.5,19.8z"/>
		</g>
		<g>
			<g>
				<path class="st0" d="M71.8,16.3c0,2.1-1.4,4.5-5.1,4.5H60V5.2h6.3c2.9,0,4.7,1.7,4.7,4c0,1.1-0.4,2.7-2.2,3.2
					C70.8,12.8,71.8,14.5,71.8,16.3z M63.5,8.3v3H66c0.8,0,1.4-0.5,1.4-1.5C67.4,9,67,8.3,66,8.3H63.5z M68.2,16
					c0-0.8-0.6-1.7-1.9-1.7h-2.8v3.5h2.8C67.6,17.7,68.2,16.9,68.2,16z"/>
				<path class="st0" d="M74.6,13c0-4.4,3.5-8,8-8c4.4,0,8,3.6,8,8s-3.6,8-8,8C78.1,21,74.6,17.4,74.6,13z M86.9,13
					c0-2.6-1.8-4.6-4.4-4.6c-2.6,0-4.4,2-4.4,4.6c0,2.6,1.7,4.7,4.4,4.7C85.1,17.7,86.9,15.6,86.9,13z"/>
				<path class="st0" d="M104.3,8.3h-4.1v12.5h-3.6V8.3h-4.1V5.2h11.8V8.3z"/>
				<path class="st0" d="M116.7,17.2h-5.5l-1.2,3.6h-3.8L112,5.2h3.9l5.8,15.6h-3.8L116.7,17.2z M115.7,14.1l-1.8-5.5l-1.7,5.5
					H115.7z"/>
				<path class="st0" d="M137.1,5.2v15.6H134l-5.1-9v9h-3.6V5.2h3.3l5,8.9V5.2H137.1z"/>
				<path class="st0" d="M142.8,5.2h3.6v15.6h-3.6V5.2z"/>
				<path class="st0" d="M150.9,13c0-4.4,3.5-8,7.9-8c2.7,0,5.1,1.4,6.6,3.5l-2.8,1.9c-0.8-1.2-2-2-3.6-2c-2.6,0-4.5,2-4.5,4.6
					s1.8,4.7,4.5,4.7c1.7,0,2.9-0.8,3.7-2l2.8,1.9c-1.4,2.1-3.8,3.4-6.6,3.4C154.5,21,150.9,17.4,150.9,13z"/>
			</g>
			<g>
				<path class="st0" d="M60,29.2h3.6v15.6H60V29.2z"/>
				<path class="st0" d="M81,29.2v15.6h-3.1l-5.1-9v9h-3.6V29.2h3.3l5,8.9v-8.9H81z"/>
				<path class="st0" d="M98.4,29.2v15.6h-3.1l-5.1-9v9h-3.6V29.2h3.3l5,8.9v-8.9H98.4z"/>
				<path class="st0" d="M102.7,37c0-4.4,3.5-8,8-8c4.4,0,8,3.6,8,8s-3.6,8-8,8C106.2,45,102.7,41.4,102.7,37z M115,37
					c0-2.6-1.8-4.6-4.4-4.6c-2.6,0-4.4,2-4.4,4.6c0,2.6,1.7,4.7,4.4,4.7C113.2,41.6,115,39.6,115,37z"/>
				<path class="st0" d="M134,29.2l-4.8,15.6h-3.2l-4.8-15.6h3.7l2.6,9.9l2.6-9.9H134z"/>
				<path class="st0" d="M146.2,41.2h-5.5l-1.2,3.6h-3.8l5.8-15.6h3.9l5.8,15.6h-3.8L146.2,41.2z M145.2,38.1l-1.8-5.5l-1.7,5.5
					H145.2z"/>
				<path class="st0" d="M164.1,32.3H160v12.5h-3.6V32.3h-4.1v-3.1h11.8V32.3z"/>
				<path class="st0" d="M168.4,29.2h3.6v15.6h-3.6V29.2z"/>
				<path class="st0" d="M176.2,37c0-4.4,3.5-8,8-8c4.4,0,8,3.6,8,8s-3.6,8-8,8C179.7,45,176.2,41.4,176.2,37z M188.6,37
					c0-2.6-1.8-4.6-4.4-4.6c-2.6,0-4.4,2-4.4,4.6c0,2.6,1.7,4.7,4.4,4.7C186.8,41.6,188.6,39.6,188.6,37z"/>
				<path class="st0" d="M208.7,29.2v15.6h-3.1l-5.1-9v9h-3.6V29.2h3.3l5,8.9v-8.9H208.7z"/>
				<path class="st0" d="M213.6,40.2h3.6c0,1,1,1.8,2.2,1.8c1.2,0,2-0.5,2-1.5c0-0.6-0.3-1.2-1.7-1.6l-1.9-0.6
					c-3.4-0.9-4.1-3-4.1-4.5c0-2.8,2.4-4.7,5.5-4.7c3,0,5.3,1.8,5.3,4.8H221c0-0.9-0.6-1.7-1.8-1.7c-1.1,0-1.8,0.7-1.8,1.5
					c0,0.3,0.1,1,1.5,1.4l1.6,0.5c2.2,0.7,4.5,1.8,4.5,4.7c0,3.4-2.9,4.8-5.8,4.8C215.9,45,213.6,43.1,213.6,40.2z"/>
			</g>
		</g>
	</g>
	<g>
		<polygon class="st0" points="231.5,34.2 231.5,29.4 232.7,29.4 234.1,32.9 235.5,29.4 236.8,29.4 236.8,34.2 235.8,34.2 
			235.8,30.9 234.5,34.2 233.7,34.2 232.4,30.9 232.4,34.2 		"/>
		<polygon class="st0" points="226.7,29.4 230.6,29.4 230.6,30.3 229.1,30.3 229.1,34.2 228.2,34.2 228.2,30.3 226.7,30.3 		"/>
	</g>
</g>
</svg>
